<svg width="72" height="24" viewBox="0 0 72 24" fill="none" xmlns="http://www.w3.org/2000/svg">
<path d="M8.218 8.972H6.552C6.44933 7.80533 5.726 7.222 4.382 7.222C3.78467 7.222 3.318 7.348 2.982 7.6C2.646 7.84267 2.478 8.17867 2.478 8.608C2.478 9.00933 2.59933 9.28467 2.842 9.434C3.094 9.58333 3.64467 9.76533 4.494 9.98C4.718 10.0453 4.89067 10.092 5.012 10.12C6.12267 10.4 6.87867 10.652 7.28 10.876C8.16667 11.352 8.61 12.094 8.61 13.102C8.61 13.5407 8.53533 13.9373 8.386 14.292C8.23667 14.6467 8.036 14.9453 7.784 15.188C7.532 15.4213 7.23333 15.6173 6.888 15.776C6.54267 15.9347 6.18333 16.0467 5.81 16.112C5.43667 16.1867 5.04933 16.224 4.648 16.224C3.39733 16.224 2.38467 15.9253 1.61 15.328C0.835333 14.7307 0.448 13.8533 0.448 12.696H2.17C2.17 13.424 2.408 13.9653 2.884 14.32C3.36 14.6653 3.98067 14.838 4.746 14.838C5.418 14.838 5.94067 14.7027 6.314 14.432C6.69667 14.152 6.888 13.7647 6.888 13.27C6.888 12.9527 6.78533 12.696 6.58 12.5C6.384 12.2947 6.16933 12.15 5.936 12.066C5.70267 11.982 5.29667 11.8653 4.718 11.716C4.65267 11.6973 4.60133 11.6833 4.564 11.674C3.32267 11.3567 2.506 11.0953 2.114 10.89C1.302 10.47 0.868 9.82133 0.812 8.944C0.812 8.87867 0.812 8.81333 0.812 8.748C0.812 7.86133 1.14333 7.15667 1.806 6.634C2.478 6.102 3.374 5.836 4.494 5.836C5.57667 5.836 6.45867 6.09267 7.14 6.606C7.82133 7.11933 8.18067 7.908 8.218 8.972ZM16.3861 13.746C16.2088 14.53 15.8215 15.1413 15.2241 15.58C14.6361 16.0187 13.9315 16.238 13.1101 16.238C12.0181 16.238 11.1501 15.888 10.5061 15.188C9.87146 14.4787 9.55413 13.5733 9.55413 12.472C9.55413 11.3427 9.88079 10.4093 10.5341 9.672C11.1968 8.93467 12.0368 8.566 13.0541 8.566C14.1088 8.566 14.9441 8.93 15.5601 9.658C16.1761 10.3767 16.4841 11.3613 16.4841 12.612V12.78H11.1501C11.1688 13.508 11.3508 14.0727 11.6961 14.474C12.0415 14.866 12.5221 15.062 13.1381 15.062C13.5768 15.062 13.9315 14.9593 14.2021 14.754C14.4821 14.5393 14.7015 14.2033 14.8601 13.746H16.3861ZM14.8881 11.716C14.8415 11.1093 14.6501 10.6333 14.3141 10.288C13.9875 9.93333 13.5628 9.756 13.0401 9.756C12.5175 9.756 12.0928 9.924 11.7661 10.26C11.4488 10.596 11.2528 11.0813 11.1781 11.716H14.8881ZM24.1654 13.746C23.9881 14.53 23.6008 15.1413 23.0034 15.58C22.4154 16.0187 21.7108 16.238 20.8894 16.238C19.7974 16.238 18.9294 15.888 18.2854 15.188C17.6508 14.4787 17.3334 13.5733 17.3334 12.472C17.3334 11.3427 17.6601 10.4093 18.3134 9.672C18.9761 8.93467 19.8161 8.566 20.8334 8.566C21.8881 8.566 22.7234 8.93 23.3394 9.658C23.9554 10.3767 24.2634 11.3613 24.2634 12.612V12.78H18.9294C18.9481 13.508 19.1301 14.0727 19.4754 14.474C19.8208 14.866 20.3014 15.062 20.9174 15.062C21.3561 15.062 21.7108 14.9593 21.9814 14.754C22.2614 14.5393 22.4808 14.2033 22.6394 13.746H24.1654ZM22.6674 11.716C22.6208 11.1093 22.4294 10.6333 22.0934 10.288C21.7668 9.93333 21.3421 9.756 20.8194 9.756C20.2968 9.756 19.8721 9.924 19.5454 10.26C19.2281 10.596 19.0321 11.0813 18.9574 11.716H22.6674ZM29.3032 11.002C29.4712 9.36867 30.5259 8.552 32.4672 8.552C33.3725 8.552 34.0912 8.72933 34.6232 9.084C35.1645 9.43867 35.4352 9.98933 35.4352 10.736V14.404C35.4352 14.6093 35.4585 14.7493 35.5052 14.824C35.5612 14.8987 35.6639 14.936 35.8132 14.936C35.9252 14.936 36.0465 14.9267 36.1772 14.908V16.028C35.7665 16.1307 35.4212 16.182 35.1412 16.182C34.4599 16.182 34.0679 15.8927 33.9652 15.314C33.3585 15.8927 32.5139 16.182 31.4312 16.182C30.6845 16.182 30.0919 15.9907 29.6532 15.608C29.2145 15.216 28.9952 14.6887 28.9952 14.026C28.9952 13.8207 29.0185 13.6293 29.0652 13.452C29.1119 13.2747 29.1632 13.1207 29.2192 12.99C29.2845 12.8593 29.3825 12.738 29.5132 12.626C29.6532 12.514 29.7652 12.4207 29.8492 12.346C29.9425 12.2713 30.0872 12.2013 30.2832 12.136C30.4885 12.0707 30.6379 12.024 30.7312 11.996C30.8339 11.9587 31.0065 11.9213 31.2492 11.884C31.4919 11.8467 31.6505 11.8233 31.7252 11.814C31.8092 11.7953 31.9772 11.772 32.2292 11.744C32.7985 11.6693 33.1859 11.6087 33.3912 11.562C33.5965 11.506 33.7365 11.4267 33.8112 11.324C33.8765 11.2493 33.9092 11.0767 33.9092 10.806C33.9092 10.078 33.4145 9.714 32.4252 9.714C31.9025 9.714 31.5199 9.812 31.2772 10.008C31.0345 10.204 30.8805 10.5353 30.8152 11.002H29.3032ZM33.8952 12.374C33.7739 12.4393 33.6339 12.5 33.4752 12.556C33.3165 12.6027 33.1859 12.6353 33.0832 12.654C32.9899 12.6633 32.8359 12.682 32.6212 12.71C32.4159 12.738 32.2805 12.7567 32.2152 12.766C32.0192 12.794 31.8652 12.822 31.7532 12.85C31.6412 12.8687 31.5012 12.906 31.3332 12.962C31.1745 13.018 31.0485 13.088 30.9552 13.172C30.8712 13.2467 30.7965 13.354 30.7312 13.494C30.6659 13.6247 30.6332 13.7833 30.6332 13.97C30.6332 14.3153 30.7452 14.5813 30.9692 14.768C31.2025 14.9547 31.5245 15.048 31.9352 15.048C32.6445 15.048 33.1905 14.8567 33.5732 14.474C33.7879 14.2593 33.8952 13.844 33.8952 13.228V12.374ZM38.7905 6.032V16H37.2085V6.032H38.7905ZM42.1675 6.032V16H40.5855V6.032H42.1675Z" fill="white"/>
<path d="M0 18.8H43.0635V19.5H0V18.8Z" fill="white"/>
<path fill-rule="evenodd" clip-rule="evenodd" d="M69.4 12L59.4357 22L58 20.5603L66.5926 11.9773L58.0227 3.417L59.4357 2L69.4 12Z" fill="white"/>
</svg>
